<?xml version="1.0" encoding="UTF-8"?>
<svg version="1.1" xmlns="http://www.w3.org/2000/svg" width="600" height="300">
<path d="M0 0 C7.98377972 5.71290141 13.31318503 13.67426692 15.25 23.3125 C16.55736187 35.44493262 15.59406356 46.39859685 8.4375 56.625 C0.85165242 65.92194102 -7.86473975 70.76474103 -19.75 72.3125 C-30.6557271 73.19199412 -41.08572422 69.97507969 -49.75 63.3125 C-57.52725285 56.42368553 -62.42353167 48.1727982 -63.19140625 37.70703125 C-63.70797423 24.70630658 -61.68255113 14.65047632 -53.015625 4.5390625 C-38.46806983 -9.75767275 -16.88832254 -10.20691547 0 0 Z M-38.1328125 19.96875 C-41.72953251 25.90459561 -41.46022605 32.59604131 -40.75 39.3125 C-39.15035175 44.28918344 -36.26695325 47.67515039 -31.75 50.3125 C-26.1643612 52.62670063 -21.46189476 52.70260951 -15.83203125 50.50390625 C-11.33726311 47.93185319 -8.37365272 44.18345815 -6.75 39.3125 C-6.12200274 31.78682791 -5.68565015 24.37827496 -10.75 18.3125 C-14.62969923 14.66522515 -18.4305804 12.99848145 -23.75 12.6875 C-29.83087238 13.04299715 -34.22810405 15.29192406 -38.1328125 19.96875 Z " fill="#F8F9FA" transform="translate(450.75,118.6875)"/>
<path d="M0 0 C7.98377972 5.71290141 13.31318503 13.67426692 15.25 23.3125 C16.55736187 35.44493262 15.59406356 46.39859685 8.4375 56.625 C0.85165242 65.92194102 -7.86473975 70.76474103 -19.75 72.3125 C-30.6557271 73.19199412 -41.08572422 69.97507969 -49.75 63.3125 C-57.52725285 56.42368553 -62.42353167 48.1727982 -63.19140625 37.70703125 C-63.70797423 24.70630658 -61.68255113 14.65047632 -53.015625 4.5390625 C-38.46806983 -9.75767275 -16.88832254 -10.20691547 0 0 Z M-38.1328125 19.96875 C-41.72953251 25.90459561 -41.46022605 32.59604131 -40.75 39.3125 C-39.15035175 44.28918344 -36.26695325 47.67515039 -31.75 50.3125 C-26.1643612 52.62670063 -21.46189476 52.70260951 -15.83203125 50.50390625 C-11.33726311 47.93185319 -8.37365272 44.18345815 -6.75 39.3125 C-6.12200274 31.78682791 -5.68565015 24.37827496 -10.75 18.3125 C-14.62969923 14.66522515 -18.4305804 12.99848145 -23.75 12.6875 C-29.83087238 13.04299715 -34.22810405 15.29192406 -38.1328125 19.96875 Z " fill="#F8F9FA" transform="translate(364.75,118.6875)"/>
<path d="M0 0 C3.31248187 -0.02888146 6.62493167 -0.04675799 9.9375 -0.0625 C10.88302734 -0.07087891 11.82855469 -0.07925781 12.80273438 -0.08789062 C14.15141602 -0.09272461 14.15141602 -0.09272461 15.52734375 -0.09765625 C16.77632446 -0.10551147 16.77632446 -0.10551147 18.05053711 -0.11352539 C20 0 20 0 21 1 C21.08767112 3.07262076 21.10695873 5.14820294 21.09765625 7.22265625 C21.09443359 8.48271484 21.09121094 9.74277344 21.08789062 11.04101562 C21.07953403 12.38151109 21.07106907 13.72200588 21.0625 15.0625 C21.0574866 16.40689942 21.05292342 17.7513006 21.04882812 19.09570312 C21.03699497 22.39715433 21.01905886 25.6985826 21 29 C28.92 29 36.84 29 45 29 C44.98839844 26.99035156 44.97679687 24.98070312 44.96484375 22.91015625 C44.9578926 20.97078576 44.95097604 19.03141497 44.94506836 17.09204102 C44.94002943 15.74079614 44.93319823 14.38955674 44.92456055 13.03833008 C44.91247581 11.09979566 44.90730172 9.161222 44.90234375 7.22265625 C44.89710693 6.05484619 44.89187012 4.88703613 44.88647461 3.68383789 C45 1 45 1 46 0 C47.47652664 -0.09880797 48.95767236 -0.13079245 50.4375 -0.1328125 C51.33210938 -0.13410156 52.22671875 -0.13539062 53.1484375 -0.13671875 C54.08945312 -0.13285156 55.03046875 -0.12898438 56 -0.125 C57.41152344 -0.13080078 57.41152344 -0.13080078 58.8515625 -0.13671875 C60.19347656 -0.13478516 60.19347656 -0.13478516 61.5625 -0.1328125 C62.38878906 -0.13168457 63.21507812 -0.13055664 64.06640625 -0.12939453 C66 0 66 0 67 1 C67.10023555 3.33714325 67.13619203 5.64474325 67.12939453 7.98242188 C67.13202301 9.07750816 67.13202301 9.07750816 67.13470459 10.19471741 C67.13912299 12.61941878 67.13618517 15.04404782 67.1328125 17.46875 C67.13348554 19.14644383 67.13445557 20.82413756 67.13571167 22.50183105 C67.13718863 26.02255174 67.13503416 29.5432471 67.13037109 33.06396484 C67.1246738 37.58710496 67.12795282 42.11018574 67.13394356 46.63332367 C67.13754923 50.09902395 67.13641056 53.56471007 67.13381577 57.03041077 C67.13314651 58.69865425 67.13397486 60.36689899 67.13629532 62.03514099 C67.13882195 64.36265494 67.13498113 66.69007148 67.12939453 69.01757812 C67.13141876 69.71371719 67.13344299 70.40985626 67.13552856 71.12709045 C67.11426274 75.88573726 67.11426274 75.88573726 66 77 C64.52347336 77.09880797 63.04232764 77.13079245 61.5625 77.1328125 C60.22058594 77.13474609 60.22058594 77.13474609 58.8515625 77.13671875 C57.44003906 77.13091797 57.44003906 77.13091797 56 77.125 C54.58847656 77.13080078 54.58847656 77.13080078 53.1484375 77.13671875 C52.25382812 77.13542969 51.35921875 77.13414062 50.4375 77.1328125 C49.61121094 77.13168457 48.78492188 77.13055664 47.93359375 77.12939453 C46 77 46 77 45 76 C44.91224395 73.85441173 44.89304781 71.70595579 44.90234375 69.55859375 C44.90556641 68.25341797 44.90878906 66.94824219 44.91210938 65.60351562 C44.92046599 64.2148431 44.92893095 62.82617123 44.9375 61.4375 C44.94251334 60.04492344 44.94707653 58.65234519 44.95117188 57.25976562 C44.96300558 53.83982549 44.98094169 50.4199075 45 47 C37.08 47 29.16 47 21 47 C21.01160156 49.08183594 21.02320313 51.16367188 21.03515625 53.30859375 C21.04210735 55.31746298 21.04902389 57.32633251 21.05493164 59.33520508 C21.0599708 60.73495228 21.06680216 62.1346942 21.07543945 63.53442383 C21.0875232 65.54245777 21.09269807 67.55052957 21.09765625 69.55859375 C21.10551147 71.37315063 21.10551147 71.37315063 21.11352539 73.22436523 C21 76 21 76 20 77 C18.59651265 77.09860131 17.18819523 77.13078937 15.78125 77.1328125 C14.50701172 77.13474609 14.50701172 77.13474609 13.20703125 77.13671875 C12.31371094 77.13285156 11.42039063 77.12898438 10.5 77.125 C9.60667969 77.12886719 8.71335938 77.13273437 7.79296875 77.13671875 C6.94347656 77.13542969 6.09398437 77.13414062 5.21875 77.1328125 C4.43435547 77.13168457 3.64996094 77.13055664 2.84179688 77.12939453 C1 77 1 77 0 76 C-0.09494733 73.62699131 -0.12559319 71.28321297 -0.11352539 68.90991211 C-0.11367142 68.16849472 -0.11381744 67.42707733 -0.1139679 66.66319275 C-0.11326865 64.20121379 -0.10547574 61.73930957 -0.09765625 59.27734375 C-0.09579211 57.57483461 -0.09436819 55.87232493 -0.09336853 54.16981506 C-0.08954302 49.68006927 -0.07971247 45.19035562 -0.06866455 40.70062256 C-0.05845113 36.12268509 -0.05387106 31.54474244 -0.04882812 26.96679688 C-0.03809022 17.97785043 -0.02101341 8.98892788 0 0 Z " fill="#F8F9FA" transform="translate(225,113)"/>
<path d="M0 0 C3.31248187 -0.02888146 6.62493167 -0.04675799 9.9375 -0.0625 C10.88302734 -0.07087891 11.82855469 -0.07925781 12.80273438 -0.08789062 C14.15141602 -0.09272461 14.15141602 -0.09272461 15.52734375 -0.09765625 C16.77632446 -0.10551147 16.77632446 -0.10551147 18.05053711 -0.11352539 C20 0 20 0 21 1 C21.15786308 2.85174706 21.25107356 4.7090911 21.31640625 6.56640625 C21.35830078 7.69111328 21.40019531 8.81582031 21.44335938 9.97460938 C21.48267578 11.15861328 21.52199219 12.34261719 21.5625 13.5625 C21.60568359 14.75037109 21.64886719 15.93824219 21.69335938 17.16210938 C21.79983546 20.10794784 21.90184841 23.0538743 22 26 C24.20952835 23.16759682 26.41739742 20.33390432 28.625 17.5 C29.24246094 16.70851562 29.85992187 15.91703125 30.49609375 15.1015625 C31.10839844 14.31523438 31.72070312 13.52890625 32.3515625 12.71875 C32.97434082 11.93564453 33.59711914 11.15253906 34.23876953 10.34570312 C36.02682759 8.05722863 36.02682759 8.05722863 37.38232422 5.63867188 C38.77258107 3.34883707 39.91865711 1.69363629 42 0 C46.00788825 -0.95216262 49.78538237 -0.7618967 53.875 -0.5 C55.47988281 -0.44585937 55.47988281 -0.44585937 57.1171875 -0.390625 C59.7484998 -0.29664956 62.37237515 -0.16545954 65 0 C65.63378906 1.80126953 65.63378906 1.80126953 66 4 C64.3362206 6.47138034 62.67821619 8.62565531 60.75 10.875 C59.64126717 12.21299511 58.53321027 13.55155057 57.42578125 14.890625 C56.85682129 15.57060547 56.28786133 16.25058594 55.70166016 16.95117188 C53.05899197 20.13298987 50.4948797 23.37452321 47.9375 26.625 C47.48536133 27.19202637 47.03322266 27.75905273 46.56738281 28.34326172 C44.1214635 31.44000665 41.946401 34.56667627 40 38 C44.74631511 44.19800802 49.50288195 50.38663291 54.33569336 56.51757812 C55.72732238 58.28371942 57.11388303 60.05375002 58.5 61.82421875 C60.00182913 63.74063892 61.51991791 65.63512699 63.0625 67.51953125 C63.619375 68.21433594 64.17625 68.90914063 64.75 69.625 C65.21921875 70.19476563 65.6884375 70.76453125 66.171875 71.3515625 C67.28393336 73.56518809 66.67319406 74.68552309 66 77 C44.91758458 78.94860576 44.91758458 78.94860576 38.7890625 74.85546875 C36.93568889 72.28210428 35.41316503 69.73321395 34.01757812 66.88818359 C32.05415182 63.24491607 29.43285798 60.04028357 26.9375 56.75 C25.98563314 55.45506739 25.03617859 54.15835589 24.08984375 52.859375 C23.40019531 51.91578125 22.71054687 50.9721875 22 50 C21.97494385 50.78238037 21.9498877 51.56476074 21.92407227 52.37084961 C21.80850212 55.89324949 21.68560051 59.4153556 21.5625 62.9375 C21.52318359 64.16919922 21.48386719 65.40089844 21.44335938 66.66992188 C21.40146484 67.83974609 21.35957031 69.00957031 21.31640625 70.21484375 C21.27974854 71.29886475 21.24309082 72.38288574 21.20532227 73.49975586 C21 76 21 76 20 77 C18.59651265 77.09860131 17.18819523 77.13078937 15.78125 77.1328125 C14.50701172 77.13474609 14.50701172 77.13474609 13.20703125 77.13671875 C12.31371094 77.13285156 11.42039062 77.12898438 10.5 77.125 C9.60667969 77.12886719 8.71335937 77.13273437 7.79296875 77.13671875 C6.94347656 77.13542969 6.09398437 77.13414062 5.21875 77.1328125 C4.43435547 77.13168457 3.64996094 77.13055664 2.84179688 77.12939453 C1 77 1 77 0 76 C-0.09494733 73.62699131 -0.12559319 71.28321297 -0.11352539 68.90991211 C-0.11367142 68.16849472 -0.11381744 67.42707733 -0.1139679 66.66319275 C-0.11326865 64.20121379 -0.10547574 61.73930957 -0.09765625 59.27734375 C-0.09579211 57.57483461 -0.09436819 55.87232493 -0.09336853 54.16981506 C-0.08954302 49.68006927 -0.07971247 45.19035562 -0.06866455 40.70062256 C-0.05845113 36.12268509 -0.05387106 31.54474244 -0.04882812 26.96679688 C-0.03809022 17.97785043 -0.02101341 8.98892788 0 0 Z " fill="#F8F9FA" transform="translate(476,113)"/>
<path d="M0 0 C2.24263373 3.36395059 2.25237629 4.48383335 2.25878906 8.41772461 C2.26509338 9.52574936 2.27139771 10.63377411 2.27789307 11.77537537 C2.2738446 12.97227493 2.26979614 14.1691745 2.265625 15.40234375 C2.26849518 17.24621422 2.26849518 17.24621422 2.27142334 19.12733459 C2.27313444 22.39573201 2.26507779 25.6639398 2.25390625 28.93231201 C2.24744097 32.25112287 2.26277471 35.5698786 2.2734375 38.88867188 C2.27211573 41.4140635 2.26955298 43.93945484 2.265625 46.46484375 C2.26967346 47.65971909 2.27372192 48.85459442 2.27789307 50.0856781 C2.27158875 51.19685501 2.26528442 52.30803192 2.25878906 53.45288086 C2.25719788 54.42978378 2.25560669 55.40668671 2.25396729 56.41319275 C1.98923747 59.10962271 1.46410721 60.73442968 0 63 C-2.42534269 64.21267134 -4.10626554 64.20131212 -6.8125 64.25 C-7.66457031 64.27578125 -8.51664063 64.3015625 -9.39453125 64.328125 C-16.50136467 63.4331115 -21.48509159 56.92167815 -26.29443359 52.13110352 C-27.74789289 50.68958979 -29.21898012 49.26780459 -30.69140625 47.84570312 C-32.07392578 46.47381836 -32.07392578 46.47381836 -33.484375 45.07421875 C-34.74846191 43.83031372 -34.74846191 43.83031372 -36.03808594 42.5612793 C-38.35044091 39.54249931 -38.96165358 37.79413049 -39 34 C-36.99692998 29.22158052 -33.06689692 25.79380992 -29.43359375 22.203125 C-28.48154808 21.25176666 -28.48154808 21.25176666 -27.51026917 20.28118896 C-26.17368371 18.94761409 -24.83467916 17.61645989 -23.4934082 16.28759766 C-21.43575181 14.24826738 -19.38627971 12.20097818 -17.33789062 10.15234375 C-16.03693051 8.85629669 -14.735514 7.56070757 -13.43359375 6.265625 C-12.51168495 5.34538544 -12.51168495 5.34538544 -11.57115173 4.40655518 C-5.45867175 -1.63760153 -5.45867175 -1.63760153 0 0 Z " fill="#9C36B5" transform="translate(188,127)"/>
<path d="M0 0 C1.65708229 -0.0238678 1.65708229 -0.0238678 3.34764099 -0.04821777 C4.53624222 -0.04841919 5.72484344 -0.04862061 6.94946289 -0.04882812 C8.78765343 -0.06024841 8.78765343 -0.06024841 10.66297913 -0.07189941 C13.25446536 -0.08270453 15.84599515 -0.08555188 18.4375 -0.08105469 C22.4038144 -0.08008261 26.36819358 -0.12169963 30.33422852 -0.16601562 C32.8518026 -0.17122267 35.36938342 -0.17391082 37.88696289 -0.17382812 C39.66682838 -0.19842102 39.66682838 -0.19842102 41.48265076 -0.22351074 C50.64090404 -0.14658736 50.64090404 -0.14658736 53.74072266 2.74609375 C56.05985982 6.30190926 56.06192338 8.2344661 55.48461914 12.41992188 C53.44083944 19.44260103 48.74032442 23.8095891 43.61572266 28.86523438 C42.16998199 30.29703843 40.74996733 31.75135467 39.33032227 33.20898438 C38.41573242 34.12164062 37.50114258 35.03429687 36.55883789 35.97460938 C35.72956787 36.80460449 34.90029785 37.63459961 34.04589844 38.48974609 C31.02682729 40.76491304 29.25729181 41.37625739 25.48461914 41.41992188 C20.65443624 39.39600209 17.10453515 35.37970601 13.43383789 31.74023438 C12.77503128 31.09045624 12.11622467 30.4406781 11.43745422 29.77120972 C10.05227724 28.40049453 8.66985552 27.02699007 7.29003906 25.65087891 C5.17386832 23.54666118 3.03975314 21.46182385 0.90454102 19.37695312 C-0.44100494 18.04086557 -1.78544508 16.70366325 -3.12866211 15.36523438 C-3.76919022 14.74423859 -4.40971832 14.1232428 -5.06965637 13.48342896 C-9.33790804 9.17079409 -9.33790804 9.17079409 -10.16455078 5.67333984 C-8.71696706 0.64844412 -4.71763959 0.0409104 0 0 Z " fill="#9C36B5" transform="translate(134.515380859375,95.580078125)"/>
<path d="M0 0 C5.47977421 2.8555142 9.47339798 7.20260716 13.72265625 11.609375 C14.52832031 12.42470703 15.33398438 13.24003906 16.1640625 14.08007812 C24.10546453 22.17445523 24.10546453 22.17445523 24.91015625 26.734375 C24.10257081 32.20800965 21.07393612 34.59751147 17.34765625 38.546875 C16.67366287 39.26198746 16.67366287 39.26198746 15.98605347 39.99154663 C12.84930507 43.30744045 9.67229018 46.58091307 6.46801758 49.83154297 C5.33805517 50.98330793 4.21441375 52.14130559 3.09692383 53.30517578 C1.46432051 55.00456634 -0.187032 56.68352595 -1.84375 58.359375 C-2.33766739 58.88112305 -2.83158478 59.40287109 -3.34046936 59.94042969 C-5.86250859 62.44781379 -7.32568108 63.5015565 -10.89038086 63.99609375 C-13.65234375 63.546875 -13.65234375 63.546875 -15.65234375 61.546875 C-15.90631104 59.08668518 -15.90631104 59.08668518 -15.91113281 55.95141602 C-15.91743713 54.78002579 -15.92374146 53.60863556 -15.93023682 52.40174866 C-15.92618835 51.13092941 -15.92213989 49.86011017 -15.91796875 48.55078125 C-15.9198822 47.25115952 -15.92179565 45.95153778 -15.92376709 44.61253357 C-15.926718 41.85939796 -15.92242258 39.10639203 -15.91308594 36.35327148 C-15.90170248 32.82460207 -15.90824382 29.29623726 -15.92023087 25.76757908 C-15.92919867 22.40362209 -15.92291792 19.03974689 -15.91796875 15.67578125 C-15.92201721 14.40698624 -15.92606567 13.13819122 -15.93023682 11.83094788 C-15.9239325 10.65640549 -15.91762817 9.4818631 -15.91113281 8.27172852 C-15.90954163 7.2362941 -15.90795044 6.20085968 -15.90631104 5.13404846 C-15.65234375 2.546875 -15.65234375 2.546875 -13.65234375 -0.453125 C-8.62493864 -2.1289267 -4.93940908 -1.96519805 0 0 Z " fill="#9C36B5" transform="translate(110.65234375,97.453125)"/>
<path d="M0 0 C2.91838979 1.90825188 5.23368857 4.32328532 7.6484375 6.82421875 C8.6954332 7.87184135 8.6954332 7.87184135 9.76358032 8.94062805 C11.23244878 10.41786352 12.69278172 11.90362899 14.14501953 13.3972168 C16.36906172 15.68140114 18.62105555 17.93482726 20.87890625 20.18554688 C22.30383005 21.62587823 23.72706646 23.06788129 25.1484375 24.51171875 C25.82127777 25.18587326 26.49411804 25.86002777 27.18734741 26.55461121 C29.76639807 29.22669093 31.72351451 31.31096428 33.11572266 34.78051758 C33 37 33 37 31.84957886 38.61445618 C29.27459704 40.54340889 27.4908209 40.38078617 24.29101562 40.38818359 C22.53404358 40.40236832 22.53404358 40.40236832 20.74157715 40.4168396 C19.47591919 40.41076691 18.21026123 40.40469421 16.90625 40.3984375 C14.95893982 40.40274277 14.95893982 40.40274277 12.97229004 40.40713501 C10.22507009 40.41155675 7.47814293 40.40513259 4.73095703 40.39111328 C1.21003159 40.37402092 -2.31020783 40.38386298 -5.83110809 40.40183067 C-9.18954371 40.41527957 -12.54779489 40.40586264 -15.90625 40.3984375 C-17.17190796 40.40451019 -18.43756592 40.41058289 -19.74157715 40.4168396 C-20.91289185 40.40738312 -22.08420654 40.39792664 -23.29101562 40.38818359 C-24.83964294 40.38460342 -24.83964294 40.38460342 -26.41955566 40.38095093 C-29 40 -29 40 -30.82971191 38.6312561 C-32.50292969 36.29896994 -32.43356408 34.53317143 -32.4375 31.6875 C-32.45683594 30.76324219 -32.47617188 29.83898437 -32.49609375 28.88671875 C-31.14003223 20.99593555 -23.80885902 15.54431176 -18.375 10.1875 C-17.50359375 9.31673828 -16.6321875 8.44597656 -15.734375 7.54882812 C-7.21097938 -0.915194 -7.21097938 -0.915194 0 0 Z " fill="#9C36B5" transform="translate(127,151)"/>
</svg>
