<?xml version="1.0" encoding="UTF-8"?>
<svg version="1.1" xmlns="http://www.w3.org/2000/svg" width="642" height="642">
<path d="M0 0 C1.12605833 -0.00322445 2.25211666 -0.00644889 3.41229796 -0.00977105 C4.64448003 -0.00822245 5.8766621 -0.00667385 7.14618301 -0.00507832 C8.45900891 -0.00734387 9.7718348 -0.00960943 11.12444329 -0.01194364 C14.76708409 -0.01806199 18.40970194 -0.017928 22.05234671 -0.01674926 C25.9815783 -0.01654526 29.91080251 -0.02206398 33.84003067 -0.02680683 C41.53799739 -0.03511438 49.23595644 -0.03786173 56.93392727 -0.03841921 C63.19183697 -0.03889437 69.44974414 -0.04094909 75.70765305 -0.04411983 C93.45120676 -0.05292706 111.19475443 -0.05753916 128.93831035 -0.05678936 C130.37324193 -0.05672943 130.37324193 -0.05672943 131.83716202 -0.05666828 C133.2738465 -0.05660696 133.2738465 -0.05660696 134.73955491 -0.0565444 C150.2592974 -0.05613802 165.77901562 -0.06570546 181.29875109 -0.07980665 C197.23551945 -0.09417243 213.17227598 -0.10107671 229.10905099 -0.10021287 C238.05580307 -0.09988095 247.00252972 -0.10262591 255.94927597 -0.11339092 C263.56747317 -0.12249862 271.1856334 -0.12466899 278.80383369 -0.1178815 C282.68947057 -0.11461753 286.57503653 -0.11455515 290.46066666 -0.12323475 C294.67653041 -0.13255498 298.89223012 -0.12632042 303.10809708 -0.11860371 C304.33135626 -0.12374727 305.55461544 -0.12889083 306.81494308 -0.13419026 C318.47917839 -0.08699102 328.25583633 1.68394912 337.19360733 9.62863445 C337.91548233 10.45363445 338.63735733 11.27863445 339.38110733 12.12863445 C340.06173233 12.87113445 340.74235733 13.61363445 341.44360733 14.37863445 C352.05378414 29.43824024 350.17100708 53.50424949 347.31860733 71.00363445 C342.76828396 90.51711422 331.57854373 104.39842845 317.68603897 118.22775555 C316.5377814 119.38173215 315.39015079 120.53633287 314.24309158 121.69150066 C311.15916361 124.7931983 308.0659349 127.88545212 304.97024465 130.97540522 C302.37547017 133.56706656 299.78533389 136.16333945 297.19512552 138.75956309 C291.08235974 144.88631701 284.96190555 151.00531262 278.8364296 157.11935711 C272.5370125 163.40727708 266.2505161 169.70790507 259.97024256 176.01494062 C254.55471774 181.45266854 249.1314154 186.8825524 243.70184797 192.3062588 C240.46896542 195.53578423 237.23898997 198.76808022 234.01643944 202.00791836 C230.98753205 205.05236831 227.94895559 208.08683488 224.90291405 211.1141386 C223.79257523 212.22081288 222.68556889 213.33084334 221.58233643 214.44460201 C211.31498473 224.80234434 200.53478654 233.37123157 185.39258194 233.59714031 C184.60504532 233.58690838 183.8175087 233.57667645 183.00610733 233.56613445 C182.17538712 233.55783611 181.3446669 233.54953777 180.48877335 233.54098797 C160.56868833 232.99483284 148.34922792 218.54028847 135.16894913 205.32052898 C133.44222951 203.59951788 131.71488204 201.87913652 129.98695755 200.15933514 C125.79905731 195.98747069 121.61820568 191.80862716 117.44094815 187.62611283 C114.04411206 184.22522139 110.64452269 180.82710536 107.24299431 177.43090725 C106.75732924 176.94599061 106.27166418 176.46107396 105.77128199 175.96146288 C104.78441735 174.97612983 103.79754934 173.99080016 102.81067798 173.00547384 C93.57712361 163.78561649 84.35313447 154.55623644 75.13217477 145.32378541 C66.70680865 136.8884805 58.27004635 128.46468143 49.82776441 120.04630925 C41.14240474 111.38536138 32.46448522 102.71702438 23.79464656 94.04053867 C18.93372898 89.1761347 14.07001621 84.31461027 9.19858742 79.46073055 C4.61978979 74.898225 0.05160912 70.32526032 -4.50963402 65.74520397 C-6.1827246 64.06842936 -7.85921552 62.39503954 -9.53937531 60.72534847 C-11.83673717 58.44120904 -14.1213549 56.1450179 -16.40327072 53.84546185 C-17.06669222 53.19164536 -17.73011371 52.53782887 -18.41363889 51.86419976 C-25.15279141 45.01782782 -29.66124306 37.75745718 -29.93139267 28.00363445 C-29.82844948 20.28289545 -27.66630961 13.95108516 -22.36889267 8.25363445 C-15.79621561 2.27334459 -8.80606671 0.00638596 0 0 Z " fill="#9C36B5" transform="translate(250.61889266967773,42.871365547180176)"/>
<path d="M0 0 C8.36640242 4.98099249 11.97978268 11.65702022 14.4375 20.9375 C14.96810989 25.43566935 14.97455045 29.87838438 14.93870544 34.40391541 C14.94700704 36.37766902 14.94700704 36.37766902 14.95547634 38.39129645 C14.97013666 42.01473407 14.96010657 45.63773294 14.94573963 49.26115596 C14.93457948 53.18013183 14.94658908 57.09904865 14.95558167 61.01802063 C14.96948235 68.68414355 14.96198127 76.35010123 14.94690608 84.01621621 C14.93000445 92.95300838 14.93326153 101.88975985 14.93700016 110.82656307 C14.94287303 126.77820749 14.92873018 142.72977289 14.90405273 158.68139648 C14.88013771 174.14203861 14.87304766 189.60257513 14.88354492 205.06323242 C14.89496825 221.9179048 14.89686641 238.77252838 14.88244683 255.62720019 C14.88092107 257.42636366 14.87940071 259.22552714 14.87788582 261.02469063 C14.877128 261.90980072 14.87637019 262.79491082 14.87558941 263.70684243 C14.8708572 269.92852571 14.8726905 276.15018711 14.87695122 282.37187004 C14.88189082 289.96022128 14.87583615 297.54847291 14.85605692 305.13680141 C14.84622189 309.0046462 14.84103853 312.87233969 14.84894943 316.74019241 C14.85736645 320.94163727 14.84235553 325.14268276 14.82518005 329.34410095 C14.83419512 331.15974286 14.83419512 331.15974286 14.84339231 333.0120644 C14.74819544 345.85653872 12.38627089 356.25727954 3.65625 365.90625 C-6.0043973 375.25015476 -17.48070805 375.58466862 -30.17602539 375.45898438 C-32.72835927 375.43768063 -35.2778336 375.45879105 -37.83007812 375.484375 C-51.34245359 375.50882357 -64.37436129 373.91391695 -76.375 367.25 C-77.49519531 366.64800781 -78.61539063 366.04601562 -79.76953125 365.42578125 C-89.62649941 359.32489712 -97.86440809 350.92895004 -105.99731445 342.76147461 C-107.09222571 341.66928142 -108.1875602 340.57751238 -109.28327942 339.48612976 C-112.22560481 336.5528305 -115.16167924 333.61335142 -118.09630227 330.67234874 C-121.18408608 327.57945765 -124.27679643 324.49149869 -127.36869812 321.40272522 C-132.55416549 316.22088219 -137.73543382 311.03486876 -142.91430664 305.84643555 C-148.88696206 299.86288129 -154.86681104 293.88658875 -160.85041267 287.91398233 C-166.00852291 282.76496817 -171.16270052 277.61204181 -176.31365174 272.45586592 C-179.3811737 269.38523922 -182.44999938 266.31594821 -185.52239418 263.25019646 C-188.40885381 260.36954416 -191.29031988 257.4839857 -194.16811943 254.59468269 C-195.22009803 253.5400763 -196.27375116 252.487137 -197.32926178 251.43606567 C-211.37582719 237.44311066 -211.37582719 237.44311066 -215.375 228.1875 C-215.77332031 227.28515625 -216.17164063 226.3828125 -216.58203125 225.453125 C-220.52162514 215.34516299 -219.88822917 201.82822937 -215.5625 191.9375 C-211.9249162 184.99526299 -207.62471131 179.41738461 -202.06803894 173.92837524 C-201.33422306 173.18761383 -200.60040718 172.44685242 -199.84435445 171.6836437 C-197.40585879 169.22698776 -194.95346598 166.78471961 -192.50073242 164.34228516 C-190.74025238 162.57474131 -188.98061543 160.80635741 -187.22175598 159.03720093 C-182.95208248 154.74740675 -178.67315111 150.46706011 -174.3893344 146.19140489 C-170.90648587 142.71487478 -167.42740203 139.23461867 -163.95092201 135.75172043 C-163.45476843 135.2546652 -162.95861486 134.75760996 -162.44742632 134.24549245 C-161.4393015 133.23551631 -160.43118231 132.22553456 -159.42306868 131.21554725 C-149.98718458 121.76311597 -140.53873296 112.32332708 -131.08614252 102.88760667 C-122.44761106 94.26378006 -113.82384542 85.62536158 -105.20708867 76.97978266 C-96.3446928 68.08796543 -87.47309516 59.20543018 -78.59120637 50.33308256 C-77.58596536 49.32886403 -76.58073827 48.32463156 -75.57552528 47.32038498 C-74.83377001 46.5793443 -74.83377001 46.5793443 -74.07702979 45.82333309 C-70.60187027 42.35033349 -67.13271738 38.8714036 -63.66594505 35.39003372 C-58.99663561 30.70133658 -54.31427267 26.02596411 -49.62296867 21.35925674 C-47.90500965 19.64630475 -46.19128476 17.92909397 -44.48217392 16.20731354 C-42.14548547 13.85467996 -39.79386433 11.5180427 -37.43791199 9.1847229 C-36.43281838 8.16187571 -36.43281838 8.16187571 -35.40741986 7.11836493 C-25.82776156 -2.27571442 -12.69677779 -5.79218564 0 0 Z " fill="#9C36B5" transform="translate(584.5625,223.0625)"/>
<path d="M0 0 C6.74611935 5.57828061 12.77761512 12.05970053 18.95371842 18.24820161 C20.69029857 19.97743438 22.42749788 21.70604553 24.16526628 23.43408418 C28.37729891 27.62626326 32.5822463 31.82546324 36.78346608 36.02847186 C40.20002411 39.44634215 43.61914372 42.86162946 47.04005837 46.27513909 C48.02874969 47.26173104 49.01744012 48.24832387 50.00612968 49.23491758 C50.49834653 49.7260909 50.99056338 50.21726422 51.49769589 50.72332158 C60.78439541 59.99116223 70.06114868 69.2689095 79.33500447 78.54959949 C87.80748848 87.02766221 96.29311159 95.49243485 104.78491167 103.95114622 C113.5218533 112.65430958 122.24943083 121.36676477 130.96719116 130.08914274 C135.85474925 134.9789405 140.74593991 139.86496598 145.64708734 144.74114633 C150.25442144 149.32520731 154.84855514 153.92223393 159.43410325 158.52808976 C161.11599249 160.2133867 162.80213427 161.89445233 164.49287057 163.5708735 C166.80576208 165.86553206 169.10259399 168.17518744 171.39617753 170.48912263 C172.06348997 171.14391723 172.73080242 171.79871182 173.41833645 172.47334868 C178.96001797 178.12048922 182.97367958 184.38720505 184.31382585 192.27041841 C184.21270457 201.57357546 183.11107835 208.35113428 176.8177321 215.42276216 C168.55183364 223.26476838 160.25468985 223.80466617 149.30959916 223.75184846 C147.95759533 223.7560257 146.605595 223.76150535 145.25360113 223.76816827 C141.55312609 223.78259086 137.85287437 223.7783882 134.15238726 223.77100146 C130.15566732 223.7662641 126.15899531 223.77878474 122.16229081 223.78901887 C114.33771002 223.80620178 106.51320956 223.80704784 98.68861481 223.80180597 C92.32685856 223.79776166 85.96512602 223.79921093 79.6033709 223.80455422 C78.24428298 223.80567686 78.24428298 223.80567686 76.85773874 223.80682217 C75.01695805 223.80835368 73.17617736 223.80989203 71.33539668 223.81143714 C54.07816233 223.82516064 36.82097332 223.81972581 19.56373999 223.80825192 C3.78684359 223.79832235 -11.98993549 223.81125571 -27.76681379 223.83518612 C-43.97716027 223.8595882 -60.18745213 223.86918209 -76.3978166 223.86253339 C-85.49440091 223.8590433 -94.59089503 223.86125925 -103.68746543 223.87878442 C-111.43220204 223.89352038 -119.17678496 223.89412378 -126.9215186 223.87671351 C-130.87027778 223.86821208 -134.81876258 223.8660327 -138.76750731 223.88136506 C-142.38798697 223.89524833 -146.00795813 223.890403 -149.62840863 223.87112582 C-151.54656609 223.86561119 -153.46474966 223.87960712 -155.38285738 223.89447993 C-166.32608376 223.80185553 -176.37754148 221.24944368 -184.35023665 213.36416841 C-190.80250379 205.46014117 -193.82160222 197.48122957 -193.7838304 187.36026216 C-193.78907226 186.51931504 -193.79431411 185.67836793 -193.7997148 184.81193757 C-193.80610356 183.03956407 -193.80483904 181.26714799 -193.79628158 179.49478364 C-193.78783481 176.83260289 -193.8164731 174.17261883 -193.84828353 171.51065278 C-193.90581618 157.85790907 -192.09169374 145.49865796 -185.78773665 133.17666841 C-185.38071517 132.28431489 -185.38071517 132.28431489 -184.96547103 131.37393403 C-179.25202708 119.93506827 -167.70126391 110.5567208 -158.73524642 101.54043794 C-157.61994843 100.41556633 -156.50481053 99.29053598 -155.38981795 98.16536164 C-151.777533 94.52214492 -148.16009905 90.88406718 -144.5416429 87.24698091 C-143.92223791 86.62427859 -143.30283291 86.00157627 -142.66465807 85.36000419 C-136.80810825 79.472735 -130.94952384 73.58749728 -125.08612323 67.70705056 C-117.63369401 60.23268154 -110.19154687 52.74838811 -102.76289493 45.25038469 C-97.50938551 39.94952306 -92.2443267 34.66030713 -86.97071475 29.3794452 C-83.83300087 26.23680017 -80.70044711 23.08940208 -77.58031058 19.92929673 C-74.64748446 16.95938251 -71.7004901 14.00427276 -68.74246764 11.05945992 C-67.6666449 9.98358364 -66.59584519 8.90265431 -65.53083396 7.81607461 C-47.33659561 -10.72645439 -21.88148701 -16.8807446 0 0 Z " fill="#9C36B5" transform="translate(237.35023665428162,375.63583159446716)"/>
<path d="M0 0 C1.92670532 0.00737183 1.92670532 0.00737183 3.89233398 0.01489258 C29.65548854 0.33251382 49.39544771 9.02198773 67.52490234 27.29956055 C68.73758057 28.50380619 69.95130603 29.70699803 71.16598511 30.90922546 C74.43354175 34.14992776 77.68525049 37.40609156 80.93334532 40.66628623 C83.65704704 43.39716173 86.388586 46.12013045 89.12012637 48.84316188 C95.56774129 55.27088611 102.00259823 61.71118236 108.42919922 68.15991211 C115.03831161 74.79139566 121.66718078 81.40263501 128.30635107 88.00401467 C134.02804535 93.69439288 139.73791118 99.39644932 145.43842661 105.10804397 C148.83358939 108.50966573 152.23276121 111.90699735 155.64310837 115.29340172 C158.84976138 118.47868001 162.04125497 121.67843399 165.22209549 124.8894825 C166.38508895 126.05876027 167.55310765 127.22306685 168.72671509 128.38169098 C179.31475263 138.84554161 186.58187123 149.88738014 187.1875 165.125 C186.64089109 188.55630177 169.42604728 201.91339932 154.09936523 217.26513672 C152.40642444 218.96435258 150.7136703 220.66375442 149.02108765 222.36332703 C143.97186711 227.43164319 138.91845112 232.49576418 133.86413988 237.55900258 C131.95694569 239.46971478 130.05006545 241.38074014 128.14320086 243.29178127 C119.72474265 251.72867486 111.30494384 260.16422788 102.88111782 268.59576225 C100.82804355 270.65074597 98.77497477 272.70573517 96.72192383 274.76074219 C96.21173547 275.27141429 95.70154711 275.78208638 95.1758985 276.3082334 C86.8946102 284.59783862 78.62188874 292.8959389 70.35266721 301.19757949 C61.84406493 309.7392652 53.32793876 318.27339046 44.80437618 326.80014813 C40.02611462 331.58057149 35.25117616 336.36421264 30.48464775 341.15633774 C26.00604743 345.65819076 21.51805171 350.15045869 17.02267075 354.63555336 C15.37609192 356.28163626 13.73292499 357.93114033 12.09346581 359.58431435 C9.85287175 361.84259871 7.60024167 364.08816388 5.34422302 366.33102417 C4.70053078 366.98568566 4.05683853 367.64034715 3.39364046 368.31484687 C-2.92564598 374.54567551 -9.75640443 378.34669655 -18.75 378.625 C-25.90794323 378.54054049 -31.53187554 376.02494068 -37.4375 372.125 C-42.94410013 366.36227893 -46.24479952 359.83723301 -46.25922108 351.83596802 C-46.26367892 350.69074142 -46.26813676 349.54551481 -46.27272969 348.36558437 C-46.27254533 347.10170423 -46.27236097 345.83782408 -46.27217102 344.53564453 C-46.2754699 343.18383459 -46.27919552 341.83202563 -46.2833125 340.48021793 C-46.29333829 336.75711346 -46.29705024 333.0340251 -46.29970181 329.31090903 C-46.30360326 325.29843697 -46.31318185 321.2859777 -46.32191467 317.27351379 C-46.34168574 307.57792869 -46.35174706 297.88234253 -46.36064246 288.18674231 C-46.36502515 283.6205981 -46.37039209 279.05445506 -46.37563133 274.48831177 C-46.39264584 259.30795024 -46.40713915 244.12758944 -46.41438007 228.94721985 C-46.41628997 225.00696817 -46.4182103 221.0667165 -46.42016602 217.12646484 C-46.42064976 216.1471345 -46.4211335 215.16780416 -46.4216319 214.15879714 C-46.42992892 198.30076027 -46.45525931 182.44279891 -46.48774669 166.584795 C-46.52083155 150.30229671 -46.53883021 134.01983677 -46.54202431 117.73730469 C-46.54418831 108.59592 -46.55292064 99.45464537 -46.57848549 90.31329346 C-46.60021214 82.52636375 -46.60823333 74.73957082 -46.59851871 66.95261425 C-46.5939794 62.9816012 -46.59583837 59.01087022 -46.61528015 55.03989601 C-46.6329519 51.3988809 -46.63188212 47.75835279 -46.61638286 44.11733222 C-46.61289674 42.18798702 -46.62900331 40.25863647 -46.64598733 38.32936287 C-46.55974243 26.60923052 -43.76976834 17.94130564 -35.546875 9.4765625 C-25.24617342 0.27238722 -13.26123946 -0.05963798 0 0 Z " fill="#9C36B5" transform="translate(90.125,42.6875)"/>
</svg>
