<?xml version="1.0" encoding="UTF-8"?>
<svg version="1.1" xmlns="http://www.w3.org/2000/svg" width="600" height="300">
<path d="M0 0 C9.05567236 6.64846832 14.0536588 15.24599989 16.125 26.25 C17.41019267 38.50019724 16.58570483 51.3334202 9.3125 61.6875 C2.7941741 69.42801201 -4.71936795 74.65606672 -14.875 76.25 C-27.11638412 77.0842752 -37.34461723 75.34551101 -46.875 67.25 C-55.37278747 58.63465421 -58.69991583 47.98512049 -59.0625 36.0625 C-58.85540438 23.88527766 -55.96413093 12.86330543 -47.51953125 3.77734375 C-34.90248036 -7.94062988 -14.43994972 -9.09182019 0 0 Z M-33.6875 18.125 C-38.82919791 25.47028273 -39.67936734 33.82253381 -38.1875 42.5625 C-36.62521001 49.13453323 -33.42388774 53.40846233 -27.875 57.25 C-22.8750025 58.91666583 -18.58845913 58.82623861 -13.75 56.75 C-9.30121409 54.32260419 -6.87033154 50.84868256 -4.875 46.25 C-2.69550848 37.74026558 -2.83001598 28.16127396 -6.875 20.25 C-10.67623822 15.39286227 -15.24266227 12.79485066 -21.375 11.875 C-26.35818809 12.62247821 -30.35888207 14.3152544 -33.6875 18.125 Z " fill="#F8F9FA" transform="translate(444.875,114.75)"/>
<path d="M0 0 C9.05567236 6.64846832 14.0536588 15.24599989 16.125 26.25 C17.41019267 38.50019724 16.58570483 51.3334202 9.3125 61.6875 C2.7941741 69.42801201 -4.71936795 74.65606672 -14.875 76.25 C-27.11638412 77.0842752 -37.34461723 75.34551101 -46.875 67.25 C-55.37278747 58.63465421 -58.69991583 47.98512049 -59.0625 36.0625 C-58.85540438 23.88527766 -55.96413093 12.86330543 -47.51953125 3.77734375 C-34.90248036 -7.94062988 -14.43994972 -9.09182019 0 0 Z M-33.6875 18.125 C-38.82919791 25.47028273 -39.67936734 33.82253381 -38.1875 42.5625 C-36.62521001 49.13453323 -33.42388774 53.40846233 -27.875 57.25 C-22.8750025 58.91666583 -18.58845913 58.82623861 -13.75 56.75 C-9.30121409 54.32260419 -6.87033154 50.84868256 -4.875 46.25 C-2.69550848 37.74026558 -2.83001598 28.16127396 -6.875 20.25 C-10.67623822 15.39286227 -15.24266227 12.79485066 -21.375 11.875 C-26.35818809 12.62247821 -30.35888207 14.3152544 -33.6875 18.125 Z " fill="#F8F9FA" transform="translate(361.875,114.75)"/>
<path d="M0 0 C0.78955078 -0.01224609 1.57910156 -0.02449219 2.39257812 -0.03710938 C4.45057435 -0.04237279 6.50812009 0.06543715 8.5625 0.1875 C10.5625 2.1875 10.5625 2.1875 10.78955078 5.16845703 C10.77907715 6.41481934 10.76860352 7.66118164 10.7578125 8.9453125 C10.7549826 9.60836395 10.75215271 10.27141541 10.74923706 10.95455933 C10.73803435 13.07405583 10.71293051 15.19313104 10.6875 17.3125 C10.67747028 18.74869182 10.66834441 20.18489025 10.66015625 21.62109375 C10.63979539 25.14352238 10.6006494 28.66503917 10.5625 32.1875 C19.8025 32.1875 29.0425 32.1875 38.5625 32.1875 C38.55089844 29.96128906 38.53929687 27.73507813 38.52734375 25.44140625 C38.51955278 23.29353986 38.51347625 21.14567503 38.50756836 18.99780273 C38.50252879 17.50105082 38.49569713 16.00430384 38.48706055 14.50756836 C38.47497841 12.36050193 38.46926809 10.21350038 38.46484375 8.06640625 C38.45960693 6.7729126 38.45437012 5.47941895 38.44897461 4.14672852 C38.5625 1.1875 38.5625 1.1875 39.5625 0.1875 C40.89293625 0.0891279 42.22843344 0.05671408 43.5625 0.0546875 C44.366875 0.05339844 45.17125 0.05210938 46 0.05078125 C46.845625 0.05464844 47.69125 0.05851562 48.5625 0.0625 C49.8309375 0.05669922 49.8309375 0.05669922 51.125 0.05078125 C51.929375 0.05207031 52.73375 0.05335937 53.5625 0.0546875 C54.305 0.05581543 55.0475 0.05694336 55.8125 0.05810547 C57.5625 0.1875 57.5625 0.1875 58.5625 1.1875 C58.66279857 3.61607035 58.69868425 6.01621613 58.69189453 8.4453125 C58.69452301 9.58428986 58.69452301 9.58428986 58.69720459 10.74627686 C58.7016233 13.26837416 58.69868506 15.79040193 58.6953125 18.3125 C58.69598553 20.05745456 58.69695555 21.80240904 58.69821167 23.54736328 C58.69968867 27.20931895 58.69753403 30.87125028 58.69287109 34.53320312 C58.6871738 39.23794492 58.6904528 43.94262968 58.69644356 48.64736938 C58.70004912 52.25203891 58.69891061 55.85669482 58.69631577 59.46136475 C58.69564648 61.19659431 58.69647496 62.93182509 58.69879532 64.66705322 C58.70132177 67.08796487 58.69748138 69.50878286 58.69189453 71.9296875 C58.69391876 72.65387878 58.69594299 73.37807007 58.69802856 74.12420654 C58.67676266 79.07323734 58.67676266 79.07323734 57.5625 80.1875 C56.23206375 80.2858721 54.89656656 80.31828592 53.5625 80.3203125 C52.758125 80.32160156 51.95375 80.32289063 51.125 80.32421875 C50.279375 80.32035156 49.43375 80.31648438 48.5625 80.3125 C47.716875 80.31636719 46.87125 80.32023437 46 80.32421875 C45.195625 80.32292969 44.39125 80.32164062 43.5625 80.3203125 C42.82 80.31918457 42.0775 80.31805664 41.3125 80.31689453 C39.5625 80.1875 39.5625 80.1875 38.5625 79.1875 C38.47466458 76.96894736 38.45555391 74.74761504 38.46484375 72.52734375 C38.4662587 71.86287735 38.46767365 71.19841095 38.46913147 70.5138092 C38.47474482 68.38416101 38.48729946 66.25461661 38.5 64.125 C38.50501329 62.68424631 38.50957649 61.24349097 38.51367188 59.80273438 C38.52386924 56.26425042 38.5434417 52.72599187 38.5625 49.1875 C29.3225 49.1875 20.0825 49.1875 10.5625 49.1875 C10.57410156 51.34152344 10.58570313 53.49554688 10.59765625 55.71484375 C10.60544737 57.79321139 10.61152381 59.87157743 10.61743164 61.94995117 C10.62247101 63.39820073 10.62930253 64.84644517 10.63793945 66.29467773 C10.65002247 68.37224588 10.65573211 70.44974697 10.66015625 72.52734375 C10.66801147 74.40474243 10.66801147 74.40474243 10.67602539 76.32006836 C10.5625 79.1875 10.5625 79.1875 9.5625 80.1875 C8.23206375 80.2858721 6.89656656 80.31828592 5.5625 80.3203125 C4.758125 80.32160156 3.95375 80.32289063 3.125 80.32421875 C2.279375 80.32035156 1.43375 80.31648438 0.5625 80.3125 C-0.283125 80.31636719 -1.12875 80.32023437 -2 80.32421875 C-2.804375 80.32292969 -3.60875 80.32164062 -4.4375 80.3203125 C-5.18 80.31918457 -5.9225 80.31805664 -6.6875 80.31689453 C-8.4375 80.1875 -8.4375 80.1875 -9.4375 79.1875 C-9.53779857 76.75892965 -9.57368425 74.35878387 -9.56689453 71.9296875 C-9.56864685 71.17036926 -9.57039917 70.41105103 -9.57220459 69.62872314 C-9.5766233 67.10662584 -9.57368506 64.58459807 -9.5703125 62.0625 C-9.57098553 60.31754544 -9.57195555 58.57259096 -9.57321167 56.82763672 C-9.57468867 53.16568105 -9.57253403 49.50374972 -9.56787109 45.84179688 C-9.5621738 41.13705508 -9.5654528 36.43237032 -9.57144356 31.72763062 C-9.57504912 28.12296109 -9.57391061 24.51830518 -9.57131577 20.91363525 C-9.57064648 19.17840569 -9.57147496 17.44317491 -9.57379532 15.70794678 C-9.57632177 13.28703513 -9.57248138 10.86621714 -9.56689453 8.4453125 C-9.56891876 7.72112122 -9.57094299 6.99692993 -9.57302856 6.25079346 C-9.54070149 -1.27241039 -6.67674152 0.00542384 0 0 Z " fill="#F8F9FA" transform="translate(234.4375,109.8125)"/>
<path d="M0 0 C0.78955078 -0.01224609 1.57910156 -0.02449219 2.39257812 -0.03710938 C4.45057435 -0.04237279 6.50812009 0.06543715 8.5625 0.1875 C11.27913793 2.90413793 10.87003121 4.48944653 10.9765625 8.2890625 C11.01523437 9.50078125 11.05390625 10.7125 11.09375 11.9609375 C11.1246875 13.23195313 11.155625 14.50296875 11.1875 15.8125 C11.22617187 17.09125 11.26484375 18.37 11.3046875 19.6875 C11.39921049 22.85402017 11.48476357 26.0205304 11.5625 29.1875 C15.713817 24.12186203 19.86283014 19.05474489 23.984375 13.96484375 C24.56614502 13.24683594 25.14791504 12.52882813 25.74731445 11.7890625 C26.90565614 10.35884371 28.06306276 8.92786706 29.21948242 7.49609375 C29.75420166 6.83609375 30.2889209 6.17609375 30.83984375 5.49609375 C31.31671631 4.90626709 31.79358887 4.31644043 32.28491211 3.70874023 C35.21106656 0.22453072 35.21106656 0.22453072 37.71728516 -0.03955078 C38.58659668 -0.02907715 39.4559082 -0.01860352 40.3515625 -0.0078125 C41.29257812 -0.00136719 42.23359375 0.00507812 43.203125 0.01171875 C44.18796875 0.02847656 45.1728125 0.04523438 46.1875 0.0625 C47.18007813 0.07152344 48.17265625 0.08054687 49.1953125 0.08984375 C51.65128134 0.11345884 54.10677168 0.14639201 56.5625 0.1875 C57.21655273 1.97998047 57.21655273 1.97998047 57.5625 4.1875 C56.60961914 5.85986328 56.60961914 5.85986328 55.09765625 7.5078125 C54.54851563 8.12084229 53.999375 8.73387207 53.43359375 9.36547852 C52.83675781 10.00799561 52.23992188 10.6505127 51.625 11.3125 C50.41651987 12.65625047 49.20948757 14.00130443 48.00390625 15.34765625 C47.4123877 16.00266113 46.82086914 16.65766602 46.21142578 17.33251953 C43.4113054 20.48255131 40.81603847 23.78527877 38.22265625 27.10546875 C36.71364459 28.9979469 35.12878802 30.77393986 33.5 32.5625 C31.29639821 34.91382131 31.29639821 34.91382131 31.8177948 37.15127563 C33.03369494 40.47587373 35.11302026 43.25602183 37.11328125 46.1484375 C37.56849655 46.81662506 38.02371185 47.48481262 38.49272156 48.17324829 C39.94800728 50.30680019 41.41130326 52.43471194 42.875 54.5625 C43.84885203 55.98660681 44.82216526 57.41108223 45.79492188 58.8359375 C47.59208238 61.46766721 49.39287041 64.09684481 51.1965332 66.72412109 C51.78865097 67.5986795 51.78865097 67.5986795 52.39273071 68.49090576 C53.53641916 70.14967322 54.7349711 71.77018513 55.93432617 73.38916016 C57.5625 76.1875 57.5625 76.1875 57.3125 78.5625 C57.065 79.09875 56.8175 79.635 56.5625 80.1875 C38.238173 81.96378712 38.238173 81.96378712 32.7734375 78.3359375 C30.68959506 75.40082325 29.15745014 72.41621543 27.5625 69.1875 C26.15260366 66.89048367 24.68782028 64.63606623 23.20947266 62.38256836 C22.20550992 60.85214522 21.21521426 59.31265679 20.23974609 57.76391602 C19.56806396 56.7012854 19.56806396 56.7012854 18.8828125 55.6171875 C18.48336426 54.98022949 18.08391602 54.34327148 17.67236328 53.68701172 C16.61888808 52.02699826 16.61888808 52.02699826 14.5625 51.1875 C14.253125 51.826875 13.94375 52.46625 13.625 53.125 C12.5625 55.1875 12.5625 55.1875 11.5625 56.1875 C11.41719013 57.88178307 11.33533477 59.58160742 11.28125 61.28125 C11.24386719 62.31121094 11.20648438 63.34117187 11.16796875 64.40234375 C11.11576172 66.02849609 11.11576172 66.02849609 11.0625 67.6875 C10.99393859 69.82306094 10.92124988 71.95849476 10.84375 74.09375 C10.79831055 75.52170898 10.79831055 75.52170898 10.75195312 76.97851562 C10.5625 79.1875 10.5625 79.1875 9.5625 80.1875 C8.23206375 80.2858721 6.89656656 80.31828592 5.5625 80.3203125 C4.758125 80.32160156 3.95375 80.32289063 3.125 80.32421875 C2.279375 80.32035156 1.43375 80.31648438 0.5625 80.3125 C-0.283125 80.31636719 -1.12875 80.32023437 -2 80.32421875 C-2.804375 80.32292969 -3.60875 80.32164062 -4.4375 80.3203125 C-5.18 80.31918457 -5.9225 80.31805664 -6.6875 80.31689453 C-8.4375 80.1875 -8.4375 80.1875 -9.4375 79.1875 C-9.53779857 76.75892965 -9.57368425 74.35878387 -9.56689453 71.9296875 C-9.56864685 71.17036926 -9.57039917 70.41105103 -9.57220459 69.62872314 C-9.5766233 67.10662584 -9.57368506 64.58459807 -9.5703125 62.0625 C-9.57098553 60.31754544 -9.57195555 58.57259096 -9.57321167 56.82763672 C-9.57468867 53.16568105 -9.57253403 49.50374972 -9.56787109 45.84179688 C-9.5621738 41.13705508 -9.5654528 36.43237032 -9.57144356 31.72763062 C-9.57504912 28.12296109 -9.57391061 24.51830518 -9.57131577 20.91363525 C-9.57064648 19.17840569 -9.57147496 17.44317491 -9.57379532 15.70794678 C-9.57632177 13.28703513 -9.57248138 10.86621714 -9.56689453 8.4453125 C-9.56891876 7.72112122 -9.57094299 6.99692993 -9.57302856 6.25079346 C-9.54070149 -1.27241039 -6.67674152 0.00542384 0 0 Z " fill="#F8F9FA" transform="translate(481.4375,109.8125)"/>
<path d="M0 0 C2.24263373 3.36395059 2.25237629 4.48383335 2.25878906 8.41772461 C2.26509338 9.52574936 2.27139771 10.63377411 2.27789307 11.77537537 C2.2738446 12.97227493 2.26979614 14.1691745 2.265625 15.40234375 C2.26849518 17.24621422 2.26849518 17.24621422 2.27142334 19.12733459 C2.27313444 22.39573201 2.26507779 25.6639398 2.25390625 28.93231201 C2.24744097 32.25112287 2.26277471 35.5698786 2.2734375 38.88867188 C2.27211573 41.4140635 2.26955298 43.93945484 2.265625 46.46484375 C2.26967346 47.65971909 2.27372192 48.85459442 2.27789307 50.0856781 C2.27158875 51.19685501 2.26528442 52.30803192 2.25878906 53.45288086 C2.25719788 54.42978378 2.25560669 55.40668671 2.25396729 56.41319275 C1.98923747 59.10962271 1.46410721 60.73442968 0 63 C-2.42534269 64.21267134 -4.10626554 64.20131212 -6.8125 64.25 C-7.66457031 64.27578125 -8.51664063 64.3015625 -9.39453125 64.328125 C-16.50136467 63.4331115 -21.48509159 56.92167815 -26.29443359 52.13110352 C-27.74789289 50.68958979 -29.21898012 49.26780459 -30.69140625 47.84570312 C-32.07392578 46.47381836 -32.07392578 46.47381836 -33.484375 45.07421875 C-34.74846191 43.83031372 -34.74846191 43.83031372 -36.03808594 42.5612793 C-38.35044091 39.54249931 -38.96165358 37.79413049 -39 34 C-36.99692998 29.22158052 -33.06689692 25.79380992 -29.43359375 22.203125 C-28.48154808 21.25176666 -28.48154808 21.25176666 -27.51026917 20.28118896 C-26.17368371 18.94761409 -24.83467916 17.61645989 -23.4934082 16.28759766 C-21.43575181 14.24826738 -19.38627971 12.20097818 -17.33789062 10.15234375 C-16.03693051 8.85629669 -14.735514 7.56070757 -13.43359375 6.265625 C-12.51168495 5.34538544 -12.51168495 5.34538544 -11.57115173 4.40655518 C-5.45867175 -1.63760153 -5.45867175 -1.63760153 0 0 Z " fill="#9C36B5" transform="translate(188,127)"/>
<path d="M0 0 C1.65708229 -0.0238678 1.65708229 -0.0238678 3.34764099 -0.04821777 C4.53624222 -0.04841919 5.72484344 -0.04862061 6.94946289 -0.04882812 C8.78765343 -0.06024841 8.78765343 -0.06024841 10.66297913 -0.07189941 C13.25446536 -0.08270453 15.84599515 -0.08555188 18.4375 -0.08105469 C22.4038144 -0.08008261 26.36819358 -0.12169963 30.33422852 -0.16601562 C32.8518026 -0.17122267 35.36938342 -0.17391082 37.88696289 -0.17382812 C39.66682838 -0.19842102 39.66682838 -0.19842102 41.48265076 -0.22351074 C50.64090404 -0.14658736 50.64090404 -0.14658736 53.74072266 2.74609375 C56.05985982 6.30190926 56.06192338 8.2344661 55.48461914 12.41992188 C53.44083944 19.44260103 48.74032442 23.8095891 43.61572266 28.86523438 C42.16998199 30.29703843 40.74996733 31.75135467 39.33032227 33.20898438 C38.41573242 34.12164062 37.50114258 35.03429687 36.55883789 35.97460938 C35.72956787 36.80460449 34.90029785 37.63459961 34.04589844 38.48974609 C31.02682729 40.76491304 29.25729181 41.37625739 25.48461914 41.41992188 C20.65443624 39.39600209 17.10453515 35.37970601 13.43383789 31.74023438 C12.77503128 31.09045624 12.11622467 30.4406781 11.43745422 29.77120972 C10.05227724 28.40049453 8.66985552 27.02699007 7.29003906 25.65087891 C5.17386832 23.54666118 3.03975314 21.46182385 0.90454102 19.37695312 C-0.44100494 18.04086557 -1.78544508 16.70366325 -3.12866211 15.36523438 C-3.76919022 14.74423859 -4.40971832 14.1232428 -5.06965637 13.48342896 C-9.33790804 9.17079409 -9.33790804 9.17079409 -10.16455078 5.67333984 C-8.71696706 0.64844412 -4.71763959 0.0409104 0 0 Z " fill="#9C36B5" transform="translate(134.515380859375,95.580078125)"/>
<path d="M0 0 C5.47977421 2.8555142 9.47339798 7.20260716 13.72265625 11.609375 C14.52832031 12.42470703 15.33398438 13.24003906 16.1640625 14.08007812 C24.10546453 22.17445523 24.10546453 22.17445523 24.91015625 26.734375 C24.10257081 32.20800965 21.07393612 34.59751147 17.34765625 38.546875 C16.67366287 39.26198746 16.67366287 39.26198746 15.98605347 39.99154663 C12.84930507 43.30744045 9.67229018 46.58091307 6.46801758 49.83154297 C5.33805517 50.98330793 4.21441375 52.14130559 3.09692383 53.30517578 C1.46432051 55.00456634 -0.187032 56.68352595 -1.84375 58.359375 C-2.33766739 58.88112305 -2.83158478 59.40287109 -3.34046936 59.94042969 C-5.86250859 62.44781379 -7.32568108 63.5015565 -10.89038086 63.99609375 C-13.65234375 63.546875 -13.65234375 63.546875 -15.65234375 61.546875 C-15.90631104 59.08668518 -15.90631104 59.08668518 -15.91113281 55.95141602 C-15.91743713 54.78002579 -15.92374146 53.60863556 -15.93023682 52.40174866 C-15.92618835 51.13092941 -15.92213989 49.86011017 -15.91796875 48.55078125 C-15.9198822 47.25115952 -15.92179565 45.95153778 -15.92376709 44.61253357 C-15.926718 41.85939796 -15.92242258 39.10639203 -15.91308594 36.35327148 C-15.90170248 32.82460207 -15.90824382 29.29623726 -15.92023087 25.76757908 C-15.92919867 22.40362209 -15.92291792 19.03974689 -15.91796875 15.67578125 C-15.92201721 14.40698624 -15.92606567 13.13819122 -15.93023682 11.83094788 C-15.9239325 10.65640549 -15.91762817 9.4818631 -15.91113281 8.27172852 C-15.90954163 7.2362941 -15.90795044 6.20085968 -15.90631104 5.13404846 C-15.65234375 2.546875 -15.65234375 2.546875 -13.65234375 -0.453125 C-8.62493864 -2.1289267 -4.93940908 -1.96519805 0 0 Z " fill="#9C36B5" transform="translate(110.65234375,97.453125)"/>
<path d="M0 0 C2.91838979 1.90825188 5.23368857 4.32328532 7.6484375 6.82421875 C8.6954332 7.87184135 8.6954332 7.87184135 9.76358032 8.94062805 C11.23244878 10.41786352 12.69278172 11.90362899 14.14501953 13.3972168 C16.36906172 15.68140114 18.62105555 17.93482726 20.87890625 20.18554688 C22.30383005 21.62587823 23.72706646 23.06788129 25.1484375 24.51171875 C25.82127777 25.18587326 26.49411804 25.86002777 27.18734741 26.55461121 C29.76639807 29.22669093 31.72351451 31.31096428 33.11572266 34.78051758 C33 37 33 37 31.84957886 38.61445618 C29.27459704 40.54340889 27.4908209 40.38078617 24.29101562 40.38818359 C22.53404358 40.40236832 22.53404358 40.40236832 20.74157715 40.4168396 C19.47591919 40.41076691 18.21026123 40.40469421 16.90625 40.3984375 C14.95893982 40.40274277 14.95893982 40.40274277 12.97229004 40.40713501 C10.22507009 40.41155675 7.47814293 40.40513259 4.73095703 40.39111328 C1.21003159 40.37402092 -2.31020783 40.38386298 -5.83110809 40.40183067 C-9.18954371 40.41527957 -12.54779489 40.40586264 -15.90625 40.3984375 C-17.17190796 40.40451019 -18.43756592 40.41058289 -19.74157715 40.4168396 C-20.91289185 40.40738312 -22.08420654 40.39792664 -23.29101562 40.38818359 C-24.83964294 40.38460342 -24.83964294 40.38460342 -26.41955566 40.38095093 C-29 40 -29 40 -30.82971191 38.6312561 C-32.50292969 36.29896994 -32.43356408 34.53317143 -32.4375 31.6875 C-32.45683594 30.76324219 -32.47617188 29.83898437 -32.49609375 28.88671875 C-31.14003223 20.99593555 -23.80885902 15.54431176 -18.375 10.1875 C-17.50359375 9.31673828 -16.6321875 8.44597656 -15.734375 7.54882812 C-7.21097938 -0.915194 -7.21097938 -0.915194 0 0 Z " fill="#9C36B5" transform="translate(127,151)"/>
</svg>
